<mxfile host="app.diagrams.net" agent="Mozilla/5.0 (Windows NT 10.0; Win64; x64) AppleWebKit/537.36 (KHTML, like Gecko) Chrome/139.0.0.0 Safari/537.36" version="28.2.0">
  <diagram name="ページ1" id="wMkdiDB5YqkRb7_wMq_g">
    <mxGraphModel dx="943" dy="1432" grid="0" gridSize="10" guides="1" tooltips="1" connect="1" arrows="1" fold="1" page="0" pageScale="1" pageWidth="827" pageHeight="1169" math="0" shadow="0">
      <root>
        <mxCell id="0" />
        <mxCell id="1" parent="0" />
        <mxCell id="vViEKQmACdGam9nDkRz3-1" value="車" style="swimlane;fontStyle=1;align=center;verticalAlign=top;childLayout=stackLayout;horizontal=1;startSize=26;horizontalStack=0;resizeParent=1;resizeParentMax=0;resizeLast=0;collapsible=1;marginBottom=0;whiteSpace=wrap;html=1;" vertex="1" parent="1">
          <mxGeometry x="-241" y="-325" width="160" height="146" as="geometry" />
        </mxCell>
        <mxCell id="vViEKQmACdGam9nDkRz3-2" value="- メーカー&lt;div&gt;- 色&lt;/div&gt;&lt;div&gt;- 走行距離&lt;/div&gt;" style="text;strokeColor=none;fillColor=none;align=left;verticalAlign=top;spacingLeft=4;spacingRight=4;overflow=hidden;rotatable=0;points=[[0,0.5],[1,0.5]];portConstraint=eastwest;whiteSpace=wrap;html=1;" vertex="1" parent="vViEKQmACdGam9nDkRz3-1">
          <mxGeometry y="26" width="160" height="52" as="geometry" />
        </mxCell>
        <mxCell id="vViEKQmACdGam9nDkRz3-3" value="" style="line;strokeWidth=1;fillColor=none;align=left;verticalAlign=middle;spacingTop=-1;spacingLeft=3;spacingRight=3;rotatable=0;labelPosition=right;points=[];portConstraint=eastwest;strokeColor=inherit;" vertex="1" parent="vViEKQmACdGam9nDkRz3-1">
          <mxGeometry y="78" width="160" height="8" as="geometry" />
        </mxCell>
        <mxCell id="vViEKQmACdGam9nDkRz3-4" value="&lt;div&gt;+ 走る&lt;/div&gt;&lt;div&gt;+ 曲がる&lt;/div&gt;&lt;div&gt;+ 止まる&lt;/div&gt;" style="text;strokeColor=none;fillColor=none;align=left;verticalAlign=top;spacingLeft=4;spacingRight=4;overflow=hidden;rotatable=0;points=[[0,0.5],[1,0.5]];portConstraint=eastwest;whiteSpace=wrap;html=1;" vertex="1" parent="vViEKQmACdGam9nDkRz3-1">
          <mxGeometry y="86" width="160" height="60" as="geometry" />
        </mxCell>
        <mxCell id="vViEKQmACdGam9nDkRz3-6" value="Classname = クラス名&lt;div&gt;Field =属性&lt;/div&gt;&lt;div&gt;Method = 操作&lt;/div&gt;" style="text;html=1;align=center;verticalAlign=middle;resizable=0;points=[];autosize=1;strokeColor=none;fillColor=none;fontSize=16;" vertex="1" parent="1">
          <mxGeometry x="-241" y="-444" width="180" height="70" as="geometry" />
        </mxCell>
      </root>
    </mxGraphModel>
  </diagram>
</mxfile>
